<?xml version="1.0" encoding="UTF-8" standalone="no"?>
<svg width="653px" height="772px" viewBox="0 0 653 772" version="1.1" xmlns="http://www.w3.org/2000/svg" xmlns:xlink="http://www.w3.org/1999/xlink">
    <!-- Generator: Sketch 3.6.1 (26313) - http://www.bohemiancoding.com/sketch -->
    <title>Compression_Bear Copy</title>
    <desc>Created with Sketch.</desc>
    <defs></defs>
    <g id="Page-1" stroke="none" stroke-width="1" fill="none" fill-rule="evenodd" opacity="0.03">
        <g id="Desktop-HD" transform="translate(-119.000000, -8.000000)" fill="#131313">
            <g id="Landing" transform="translate(119.000000, -100.000000)">
                <g id="Compression_Bear-Copy" transform="translate(0.000000, 107.000000)">
                    <path d="M319.851714,269.313735 L319.851714,310.971119 C289.369043,307.703073 266.185741,281.358455 266.185741,293.023441 C266.185741,305.448807 292.489952,324.526066 325.90139,324.526066 C359.312827,324.526066 386.124009,306.372633 386.124009,293.023441 C386.124009,280.490416 362.491069,307.600156 331.951066,310.961977 L331.951066,269.313735 C349.118312,267.193481 362.199446,256.343831 362.199446,245.858751 C362.199446,234.172056 370.005489,224.698118 325.90139,224.698118 C281.797291,224.698118 289.603334,234.172056 289.603334,245.858751 C289.603334,256.343831 302.684468,267.193481 319.851714,269.313735 Z M516.501524,458.225442 C522.20439,476.339416 525.275668,495.591903 525.275668,515.550247 C525.275668,525.726469 524.477226,535.719188 522.938625,545.471056 C525.173924,546.305361 527.390216,547.233091 529.583702,548.255931 C581.06148,572.260413 600.485249,639.557869 572.967904,698.569006 C545.450559,757.580143 481.412359,785.958643 429.934581,761.954161 C405.016884,750.334848 387.609509,728.5719 379.400854,702.515099 C363.214097,706.757617 346.206017,709.01889 328.6612,709.01889 C310.307081,709.01889 292.540356,706.54419 275.686834,701.915384 C267.914468,729.351589 250.126,752.397276 224.219025,764.477897 C172.741246,788.482379 108.703046,760.103879 81.1857012,701.092742 C53.6683562,642.081605 73.0921251,574.784149 124.569903,550.779667 C127.8659,549.242718 131.213389,547.920515 134.599486,546.807349 C132.919867,536.632705 132.046733,526.19181 132.046733,515.550247 C132.046733,493.281293 135.870309,471.891094 142.906698,451.980642 C101.722765,499.779704 44.5969254,524.534642 16.3310054,500.816719 C-12.3637153,476.73899 -2.13926722,417.312935 39.1679492,368.084912 C69.4821056,331.957907 129.187565,297.780065 170.160557,291.663737 C153.647658,265.244778 144.146084,234.276189 144.146084,201.163703 C144.146084,184.500557 146.552252,168.380329 151.047239,153.109598 C136.603915,149.188311 123.549054,140.997535 113.938014,128.695964 C88.5538203,96.205678 96.8050669,47.3432561 132.367689,19.5586905 C167.930311,-8.22587507 217.337468,-4.41113467 242.721661,28.0791517 C245.988477,32.2604846 248.69821,36.7129788 250.864339,41.35681 C273.665139,31.3846494 298.979616,25.8327455 325.636362,25.8327455 C351.869436,25.8327455 376.802568,31.2095719 399.319331,40.8846865 C401.391316,36.6447657 403.923572,32.5719747 406.926567,28.7283168 C432.310761,-3.76196955 481.717917,-7.57670994 517.280539,20.2078557 C552.843161,47.9924212 561.094408,96.8548431 535.710214,129.345129 C526.472214,141.16923 514.05254,149.195454 500.276391,153.282878 C504.738636,168.502257 507.12664,184.56357 507.12664,201.163703 C507.12664,233.846957 497.869805,264.441535 481.75079,290.634052 C522.748177,296.299144 583.248308,330.763445 613.832051,367.21173 C655.139267,416.439754 665.363715,475.865809 636.668995,499.943538 C609.842127,522.453952 557.019125,501.301492 516.501524,458.225442 Z M468.992285,542.195792 C470.20072,534.503366 470.828584,526.613084 470.828584,518.573195 C470.828584,436.766331 405.823812,370.448765 325.636362,370.448765 C245.448912,370.448765 180.44414,436.766331 180.44414,518.573195 C180.44414,527.304372 181.184617,535.859108 182.604998,544.175609 C217.3253,551.102806 249.965969,576.3416 267.603227,614.164822 C274.474803,628.900965 278.419175,644.153836 279.668167,659.120232 C294.114325,664.035567 309.570619,666.697625 325.636362,666.697625 C342.730222,666.697625 359.134135,663.683952 374.365461,658.148994 C375.464976,642.68625 379.441038,626.887116 386.550379,611.641086 C403.754111,574.747562 435.232749,549.827417 468.992286,542.195788 Z M216.794575,60.8481021 C215.544467,57.0700598 213.65437,53.4741137 211.09925,50.2037102 C197.967519,33.39586 172.24312,31.5514319 153.642198,46.0840648 C135.041276,60.6166977 130.607622,86.0231792 143.739354,102.831029 C149.542862,110.259181 157.805916,114.764741 166.82664,116.225686 C179.286239,94.5305543 196.371026,75.6571072 216.794575,60.8481021 Z M433.367669,60.049254 C434.600816,56.7998685 436.322398,53.7027681 438.548978,50.8528753 C451.68071,34.0450251 477.405108,32.2005971 496.00603,46.73323 C514.606952,61.2658629 519.040607,86.6723443 505.908875,103.480195 C500.49464,110.410099 492.939743,114.796332 484.626056,116.539813 C471.92687,94.3201734 454.381803,75.046626 433.367669,60.049254 Z M253.040251,189.071913 C266.404826,189.071913 277.238955,178.244555 277.238955,164.888332 C277.238955,151.53211 266.404826,140.704752 253.040251,140.704752 C239.675676,140.704752 228.841547,151.53211 228.841547,164.888332 C228.841547,178.244555 239.675676,189.071913 253.040251,189.071913 Z M398.232473,189.071913 C411.597048,189.071913 422.431177,178.244555 422.431177,164.888332 C422.431177,151.53211 411.597048,140.704752 398.232473,140.704752 C384.867898,140.704752 374.03377,151.53211 374.03377,164.888332 C374.03377,178.244555 384.867898,189.071913 398.232473,189.071913 Z M253.040251,176.980123 C259.722539,176.980123 265.139603,171.566444 265.139603,164.888332 C265.139603,158.210221 259.722539,152.796542 253.040251,152.796542 C246.357964,152.796542 240.940899,158.210221 240.940899,164.888332 C240.940899,171.566444 246.357964,176.980123 253.040251,176.980123 Z M398.232473,176.980123 C404.914761,176.980123 410.331825,171.566444 410.331825,164.888332 C410.331825,158.210221 404.914761,152.796542 398.232473,152.796542 C391.550186,152.796542 386.133121,158.210221 386.133121,164.888332 C386.133121,171.566444 391.550186,176.980123 398.232473,176.980123 Z M210.231537,736.226062 C246.547881,719.291472 259.88587,671.031943 240.02277,628.435387 C220.159669,585.83883 174.617231,565.035695 138.300887,581.970284 C101.984543,598.904873 88.6465541,647.164403 108.509655,689.760959 C128.372755,732.357516 173.915193,753.160651 210.231537,736.226062 Z M443.922068,733.702325 C407.605724,716.767736 394.267735,668.508207 414.130836,625.91165 C433.993936,583.315094 479.536374,562.511959 515.852718,579.446548 C552.169062,596.381137 565.507051,644.640666 545.643951,687.237223 C525.78085,729.83378 480.238412,750.636915 443.922068,733.702325 Z M325.636362,357.572294 C375.753519,357.572294 416.381501,321.182427 416.381501,282.783287 C416.381501,244.384147 409.108212,210.833893 325.636362,210.833893 C242.164513,210.833893 234.891223,244.384147 234.891223,282.783287 C234.891223,321.182427 275.519206,357.572294 325.636362,357.572294 Z" id="Combined-Shape-Copy-2"></path>
                </g>
            </g>
        </g>
    </g>
</svg>