<?xml version="1.0" encoding="UTF-8" standalone="no"?>
<svg width="1093px" height="1101px" viewBox="0 0 1093 1101" version="1.1" xmlns="http://www.w3.org/2000/svg" xmlns:xlink="http://www.w3.org/1999/xlink">
    <!-- Generator: Sketch 3.6.1 (26313) - http://www.bohemiancoding.com/sketch -->
    <title>Group 2</title>
    <desc>Created with Sketch.</desc>
    <defs></defs>
    <g id="Page-1" stroke="none" stroke-width="1" fill="none" fill-rule="evenodd" opacity="0.03">
        <g id="Desktop-HD" transform="translate(-171.000000, -1296.000000)" fill="#131313">
            <g id="How-does-it-work" transform="translate(145.000000, 1281.000000)">
                <g id="Group-2">
                    <path d="M814.008474,135.006013 C820.973332,132.192027 823.383148,121.900675 819.390948,112.019634 C815.398749,102.138593 806.516298,96.4096121 799.551439,99.2235976 C792.586581,102.037583 790.176765,112.328935 794.168965,122.209977 C798.161164,132.091018 807.043615,137.819998 814.008474,135.006013 Z M897.773423,135.006013 C890.808565,132.192027 888.398749,121.900675 892.390948,112.019634 C896.383148,102.138593 905.265599,96.4096121 912.230457,99.2235976 C919.195316,102.037583 921.605132,112.328935 917.612932,122.209977 C913.620732,132.091018 904.738281,137.819998 897.773423,135.006013 Z M874.518301,105.109639 C865.048342,103.609745 859.003694,92.0880949 861.0172,79.3753129 C863.030707,66.6625309 872.339895,57.5726893 881.809854,59.0725834 C891.279812,60.5724775 897.324461,72.0941279 895.310954,84.8069099 C893.297447,97.5196918 883.988259,106.609533 874.518301,105.109639 Z M837.600861,105.881281 C847.07082,104.381387 853.115468,92.8597361 851.101961,80.1469541 C849.088455,67.4341722 839.779267,58.3443306 830.309308,59.8442247 C820.839349,61.3441188 814.794701,72.8657692 816.808208,85.5785511 C818.821715,98.2913331 828.130903,107.381175 837.600861,105.881281 Z M855.162431,173.930745 C875.044682,173.930745 895.004819,187.619645 900.805448,171.504349 C910.325368,151.883866 882.516256,141.469694 878.791913,129.704079 C874.656347,116.774058 866.976549,109.519341 857.643026,109.519341 C848.309503,109.519341 838.137158,118.486347 832.395666,131.562205 C820.649726,147.04174 802.80442,151.334095 809.688844,171.504349 C815.325104,187.464096 835.28018,173.930745 855.162431,173.930745 Z" id="Combined-Shape" transform="translate(855.890948, 119.132750) rotate(-144.000000) translate(-855.890948, -119.132750) "></path>
                    <path d="M834.008474,307.006013 C840.973332,304.192027 843.383148,293.900675 839.390948,284.019634 C835.398749,274.138593 826.516298,268.409612 819.551439,271.223598 C812.586581,274.037583 810.176765,284.328935 814.168965,294.209977 C818.161164,304.091018 827.043615,309.819998 834.008474,307.006013 Z M917.773423,307.006013 C910.808565,304.192027 908.398749,293.900675 912.390948,284.019634 C916.383148,274.138593 925.265599,268.409612 932.230457,271.223598 C939.195316,274.037583 941.605132,284.328935 937.612932,294.209977 C933.620732,304.091018 924.738281,309.819998 917.773423,307.006013 Z M894.518301,277.109639 C885.048342,275.609745 879.003694,264.088095 881.0172,251.375313 C883.030707,238.662531 892.339895,229.572689 901.809854,231.072583 C911.279812,232.572478 917.324461,244.094128 915.310954,256.80691 C913.297447,269.519692 903.988259,278.609533 894.518301,277.109639 Z M857.600861,277.881281 C867.07082,276.381387 873.115468,264.859736 871.101961,252.146954 C869.088455,239.434172 859.779267,230.344331 850.309308,231.844225 C840.839349,233.344119 834.794701,244.865769 836.808208,257.578551 C838.821715,270.291333 848.130903,279.381175 857.600861,277.881281 Z M875.162431,345.930745 C895.044682,345.930745 915.004819,359.619645 920.805448,343.504349 C930.325368,323.883866 902.516256,313.469694 898.791913,301.704079 C894.656347,288.774058 886.976549,281.519341 877.643026,281.519341 C868.309503,281.519341 858.137158,290.486347 852.395666,303.562205 C840.649726,319.04174 822.80442,323.334095 829.688844,343.504349 C835.325104,359.464096 855.28018,345.930745 875.162431,345.930745 Z" id="Combined-Shape-Copy" transform="translate(875.890948, 291.132750) rotate(-144.000000) translate(-875.890948, -291.132750) "></path>
                    <path d="M640.008474,328.006013 C646.973332,325.192027 649.383148,314.900675 645.390948,305.019634 C641.398749,295.138593 632.516298,289.409612 625.551439,292.223598 C618.586581,295.037583 616.176765,305.328935 620.168965,315.209977 C624.161164,325.091018 633.043615,330.819998 640.008474,328.006013 Z M723.773423,328.006013 C716.808565,325.192027 714.398749,314.900675 718.390948,305.019634 C722.383148,295.138593 731.265599,289.409612 738.230457,292.223598 C745.195316,295.037583 747.605132,305.328935 743.612932,315.209977 C739.620732,325.091018 730.738281,330.819998 723.773423,328.006013 Z M700.518301,298.109639 C691.048342,296.609745 685.003694,285.088095 687.0172,272.375313 C689.030707,259.662531 698.339895,250.572689 707.809854,252.072583 C717.279812,253.572478 723.324461,265.094128 721.310954,277.80691 C719.297447,290.519692 709.988259,299.609533 700.518301,298.109639 Z M663.600861,298.881281 C673.07082,297.381387 679.115468,285.859736 677.101961,273.146954 C675.088455,260.434172 665.779267,251.344331 656.309308,252.844225 C646.839349,254.344119 640.794701,265.865769 642.808208,278.578551 C644.821715,291.291333 654.130903,300.381175 663.600861,298.881281 Z M681.162431,366.930745 C701.044682,366.930745 721.004819,380.619645 726.805448,364.504349 C736.325368,344.883866 708.516256,334.469694 704.791913,322.704079 C700.656347,309.774058 692.976549,302.519341 683.643026,302.519341 C674.309503,302.519341 664.137158,311.486347 658.395666,324.562205 C646.649726,340.04174 628.80442,344.334095 635.688844,364.504349 C641.325104,380.464096 661.28018,366.930745 681.162431,366.930745 Z" id="Combined-Shape-Copy-3" transform="translate(681.890948, 312.132750) rotate(-144.000000) translate(-681.890948, -312.132750) "></path>
                    <path d="M727.008474,525.006013 C733.973332,522.192027 736.383148,511.900675 732.390948,502.019634 C728.398749,492.138593 719.516298,486.409612 712.551439,489.223598 C705.586581,492.037583 703.176765,502.328935 707.168965,512.209977 C711.161164,522.091018 720.043615,527.819998 727.008474,525.006013 Z M810.773423,525.006013 C803.808565,522.192027 801.398749,511.900675 805.390948,502.019634 C809.383148,492.138593 818.265599,486.409612 825.230457,489.223598 C832.195316,492.037583 834.605132,502.328935 830.612932,512.209977 C826.620732,522.091018 817.738281,527.819998 810.773423,525.006013 Z M787.518301,495.109639 C778.048342,493.609745 772.003694,482.088095 774.0172,469.375313 C776.030707,456.662531 785.339895,447.572689 794.809854,449.072583 C804.279812,450.572478 810.324461,462.094128 808.310954,474.80691 C806.297447,487.519692 796.988259,496.609533 787.518301,495.109639 Z M750.600861,495.881281 C760.07082,494.381387 766.115468,482.859736 764.101961,470.146954 C762.088455,457.434172 752.779267,448.344331 743.309308,449.844225 C733.839349,451.344119 727.794701,462.865769 729.808208,475.578551 C731.821715,488.291333 741.130903,497.381175 750.600861,495.881281 Z M768.162431,563.930745 C788.044682,563.930745 808.004819,577.619645 813.805448,561.504349 C823.325368,541.883866 795.516256,531.469694 791.791913,519.704079 C787.656347,506.774058 779.976549,499.519341 770.643026,499.519341 C761.309503,499.519341 751.137158,508.486347 745.395666,521.562205 C733.649726,537.04174 715.80442,541.334095 722.688844,561.504349 C728.325104,577.464096 748.28018,563.930745 768.162431,563.930745 Z" id="Combined-Shape-Copy-4" transform="translate(768.890948, 509.132750) rotate(-144.000000) translate(-768.890948, -509.132750) "></path>
                    <path d="M504.008474,500.006013 C510.973332,497.192027 513.383148,486.900675 509.390948,477.019634 C505.398749,467.138593 496.516298,461.409612 489.551439,464.223598 C482.586581,467.037583 480.176765,477.328935 484.168965,487.209977 C488.161164,497.091018 497.043615,502.819998 504.008474,500.006013 Z M587.773423,500.006013 C580.808565,497.192027 578.398749,486.900675 582.390948,477.019634 C586.383148,467.138593 595.265599,461.409612 602.230457,464.223598 C609.195316,467.037583 611.605132,477.328935 607.612932,487.209977 C603.620732,497.091018 594.738281,502.819998 587.773423,500.006013 Z M564.518301,470.109639 C555.048342,468.609745 549.003694,457.088095 551.0172,444.375313 C553.030707,431.662531 562.339895,422.572689 571.809854,424.072583 C581.279812,425.572478 587.324461,437.094128 585.310954,449.80691 C583.297447,462.519692 573.988259,471.609533 564.518301,470.109639 Z M527.600861,470.881281 C537.07082,469.381387 543.115468,457.859736 541.101961,445.146954 C539.088455,432.434172 529.779267,423.344331 520.309308,424.844225 C510.839349,426.344119 504.794701,437.865769 506.808208,450.578551 C508.821715,463.291333 518.130903,472.381175 527.600861,470.881281 Z M545.162431,538.930745 C565.044682,538.930745 585.004819,552.619645 590.805448,536.504349 C600.325368,516.883866 572.516256,506.469694 568.791913,494.704079 C564.656347,481.774058 556.976549,474.519341 547.643026,474.519341 C538.309503,474.519341 528.137158,483.486347 522.395666,496.562205 C510.649726,512.04174 492.80442,516.334095 499.688844,536.504349 C505.325104,552.464096 525.28018,538.930745 545.162431,538.930745 Z" id="Combined-Shape-Copy-5" transform="translate(545.890948, 484.132750) rotate(-144.000000) translate(-545.890948, -484.132750) "></path>
                    <path d="M618.008474,697.006013 C624.973332,694.192027 627.383148,683.900675 623.390948,674.019634 C619.398749,664.138593 610.516298,658.409612 603.551439,661.223598 C596.586581,664.037583 594.176765,674.328935 598.168965,684.209977 C602.161164,694.091018 611.043615,699.819998 618.008474,697.006013 Z M701.773423,697.006013 C694.808565,694.192027 692.398749,683.900675 696.390948,674.019634 C700.383148,664.138593 709.265599,658.409612 716.230457,661.223598 C723.195316,664.037583 725.605132,674.328935 721.612932,684.209977 C717.620732,694.091018 708.738281,699.819998 701.773423,697.006013 Z M678.518301,667.109639 C669.048342,665.609745 663.003694,654.088095 665.0172,641.375313 C667.030707,628.662531 676.339895,619.572689 685.809854,621.072583 C695.279812,622.572478 701.324461,634.094128 699.310954,646.80691 C697.297447,659.519692 687.988259,668.609533 678.518301,667.109639 Z M641.600861,667.881281 C651.07082,666.381387 657.115468,654.859736 655.101961,642.146954 C653.088455,629.434172 643.779267,620.344331 634.309308,621.844225 C624.839349,623.344119 618.794701,634.865769 620.808208,647.578551 C622.821715,660.291333 632.130903,669.381175 641.600861,667.881281 Z M659.162431,735.930745 C679.044682,735.930745 699.004819,749.619645 704.805448,733.504349 C714.325368,713.883866 686.516256,703.469694 682.791913,691.704079 C678.656347,678.774058 670.976549,671.519341 661.643026,671.519341 C652.309503,671.519341 642.137158,680.486347 636.395666,693.562205 C624.649726,709.04174 606.80442,713.334095 613.688844,733.504349 C619.325104,749.464096 639.28018,735.930745 659.162431,735.930745 Z" id="Combined-Shape-Copy-6" transform="translate(659.890948, 681.132750) rotate(-144.000000) translate(-659.890948, -681.132750) "></path>
                    <path d="M366.008474,697.006013 C372.973332,694.192027 375.383148,683.900675 371.390948,674.019634 C367.398749,664.138593 358.516298,658.409612 351.551439,661.223598 C344.586581,664.037583 342.176765,674.328935 346.168965,684.209977 C350.161164,694.091018 359.043615,699.819998 366.008474,697.006013 Z M449.773423,697.006013 C442.808565,694.192027 440.398749,683.900675 444.390948,674.019634 C448.383148,664.138593 457.265599,658.409612 464.230457,661.223598 C471.195316,664.037583 473.605132,674.328935 469.612932,684.209977 C465.620732,694.091018 456.738281,699.819998 449.773423,697.006013 Z M426.518301,667.109639 C417.048342,665.609745 411.003694,654.088095 413.0172,641.375313 C415.030707,628.662531 424.339895,619.572689 433.809854,621.072583 C443.279812,622.572478 449.324461,634.094128 447.310954,646.80691 C445.297447,659.519692 435.988259,668.609533 426.518301,667.109639 Z M389.600861,667.881281 C399.07082,666.381387 405.115468,654.859736 403.101961,642.146954 C401.088455,629.434172 391.779267,620.344331 382.309308,621.844225 C372.839349,623.344119 366.794701,634.865769 368.808208,647.578551 C370.821715,660.291333 380.130903,669.381175 389.600861,667.881281 Z M407.162431,735.930745 C427.044682,735.930745 447.004819,749.619645 452.805448,733.504349 C462.325368,713.883866 434.516256,703.469694 430.791913,691.704079 C426.656347,678.774058 418.976549,671.519341 409.643026,671.519341 C400.309503,671.519341 390.137158,680.486347 384.395666,693.562205 C372.649726,709.04174 354.80442,713.334095 361.688844,733.504349 C367.325104,749.464096 387.28018,735.930745 407.162431,735.930745 Z" id="Combined-Shape-Copy-7" transform="translate(407.890948, 681.132750) rotate(-144.000000) translate(-407.890948, -681.132750) "></path>
                    <path d="M504.008474,895.006013 C510.973332,892.192027 513.383148,881.900675 509.390948,872.019634 C505.398749,862.138593 496.516298,856.409612 489.551439,859.223598 C482.586581,862.037583 480.176765,872.328935 484.168965,882.209977 C488.161164,892.091018 497.043615,897.819998 504.008474,895.006013 Z M587.773423,895.006013 C580.808565,892.192027 578.398749,881.900675 582.390948,872.019634 C586.383148,862.138593 595.265599,856.409612 602.230457,859.223598 C609.195316,862.037583 611.605132,872.328935 607.612932,882.209977 C603.620732,892.091018 594.738281,897.819998 587.773423,895.006013 Z M564.518301,865.109639 C555.048342,863.609745 549.003694,852.088095 551.0172,839.375313 C553.030707,826.662531 562.339895,817.572689 571.809854,819.072583 C581.279812,820.572478 587.324461,832.094128 585.310954,844.80691 C583.297447,857.519692 573.988259,866.609533 564.518301,865.109639 Z M527.600861,865.881281 C537.07082,864.381387 543.115468,852.859736 541.101961,840.146954 C539.088455,827.434172 529.779267,818.344331 520.309308,819.844225 C510.839349,821.344119 504.794701,832.865769 506.808208,845.578551 C508.821715,858.291333 518.130903,867.381175 527.600861,865.881281 Z M545.162431,933.930745 C565.044682,933.930745 585.004819,947.619645 590.805448,931.504349 C600.325368,911.883866 572.516256,901.469694 568.791913,889.704079 C564.656347,876.774058 556.976549,869.519341 547.643026,869.519341 C538.309503,869.519341 528.137158,878.486347 522.395666,891.562205 C510.649726,907.04174 492.80442,911.334095 499.688844,931.504349 C505.325104,947.464096 525.28018,933.930745 545.162431,933.930745 Z" id="Combined-Shape-Copy-8" transform="translate(545.890948, 879.132750) rotate(-144.000000) translate(-545.890948, -879.132750) "></path>
                    <path d="M219.008474,869.006013 C225.973332,866.192027 228.383148,855.900675 224.390948,846.019634 C220.398749,836.138593 211.516298,830.409612 204.551439,833.223598 C197.586581,836.037583 195.176765,846.328935 199.168965,856.209977 C203.161164,866.091018 212.043615,871.819998 219.008474,869.006013 Z M302.773423,869.006013 C295.808565,866.192027 293.398749,855.900675 297.390948,846.019634 C301.383148,836.138593 310.265599,830.409612 317.230457,833.223598 C324.195316,836.037583 326.605132,846.328935 322.612932,856.209977 C318.620732,866.091018 309.738281,871.819998 302.773423,869.006013 Z M279.518301,839.109639 C270.048342,837.609745 264.003694,826.088095 266.0172,813.375313 C268.030707,800.662531 277.339895,791.572689 286.809854,793.072583 C296.279812,794.572478 302.324461,806.094128 300.310954,818.80691 C298.297447,831.519692 288.988259,840.609533 279.518301,839.109639 Z M242.600861,839.881281 C252.07082,838.381387 258.115468,826.859736 256.101961,814.146954 C254.088455,801.434172 244.779267,792.344331 235.309308,793.844225 C225.839349,795.344119 219.794701,806.865769 221.808208,819.578551 C223.821715,832.291333 233.130903,841.381175 242.600861,839.881281 Z M260.162431,907.930745 C280.044682,907.930745 300.004819,921.619645 305.805448,905.504349 C315.325368,885.883866 287.516256,875.469694 283.791913,863.704079 C279.656347,850.774058 271.976549,843.519341 262.643026,843.519341 C253.309503,843.519341 243.137158,852.486347 237.395666,865.562205 C225.649726,881.04174 207.80442,885.334095 214.688844,905.504349 C220.325104,921.464096 240.28018,907.930745 260.162431,907.930745 Z" id="Combined-Shape-Copy-9" transform="translate(260.890948, 853.132750) rotate(-144.000000) translate(-260.890948, -853.132750) "></path>
                    <path d="M330.008474,1067.00601 C336.973332,1064.19203 339.383148,1053.90067 335.390948,1044.01963 C331.398749,1034.13859 322.516298,1028.40961 315.551439,1031.2236 C308.586581,1034.03758 306.176765,1044.32894 310.168965,1054.20998 C314.161164,1064.09102 323.043615,1069.82 330.008474,1067.00601 Z M413.773423,1067.00601 C406.808565,1064.19203 404.398749,1053.90067 408.390948,1044.01963 C412.383148,1034.13859 421.265599,1028.40961 428.230457,1031.2236 C435.195316,1034.03758 437.605132,1044.32894 433.612932,1054.20998 C429.620732,1064.09102 420.738281,1069.82 413.773423,1067.00601 Z M390.518301,1037.10964 C381.048342,1035.60975 375.003694,1024.08809 377.0172,1011.37531 C379.030707,998.662531 388.339895,989.572689 397.809854,991.072583 C407.279812,992.572478 413.324461,1004.09413 411.310954,1016.80691 C409.297447,1029.51969 399.988259,1038.60953 390.518301,1037.10964 Z M353.600861,1037.88128 C363.07082,1036.38139 369.115468,1024.85974 367.101961,1012.14695 C365.088455,999.434172 355.779267,990.344331 346.309308,991.844225 C336.839349,993.344119 330.794701,1004.86577 332.808208,1017.57855 C334.821715,1030.29133 344.130903,1039.38117 353.600861,1037.88128 Z M371.162431,1105.93074 C391.044682,1105.93074 411.004819,1119.61964 416.805448,1103.50435 C426.325368,1083.88387 398.516256,1073.46969 394.791913,1061.70408 C390.656347,1048.77406 382.976549,1041.51934 373.643026,1041.51934 C364.309503,1041.51934 354.137158,1050.48635 348.395666,1063.56221 C336.649726,1079.04174 318.80442,1083.3341 325.688844,1103.50435 C331.325104,1119.4641 351.28018,1105.93074 371.162431,1105.93074 Z" id="Combined-Shape-Copy-10" transform="translate(371.890948, 1051.132750) rotate(-144.000000) translate(-371.890948, -1051.132750) "></path>
                    <path d="M45.0084735,1051.00601 C51.973332,1048.19203 54.383148,1037.90067 50.3909483,1028.01963 C46.3987485,1018.13859 37.5162979,1012.40961 30.5514394,1015.2236 C23.586581,1018.03758 21.176765,1028.32894 25.1689647,1038.20998 C29.1611644,1048.09102 38.0436151,1053.82 45.0084735,1051.00601 Z M128.773423,1051.00601 C121.808565,1048.19203 119.398749,1037.90067 123.390948,1028.01963 C127.383148,1018.13859 136.265599,1012.40961 143.230457,1015.2236 C150.195316,1018.03758 152.605132,1028.32894 148.612932,1038.20998 C144.620732,1048.09102 135.738281,1053.82 128.773423,1051.00601 Z M105.518301,1021.10964 C96.048342,1019.60975 90.0036936,1008.08809 92.0172004,995.375313 C94.0307073,982.662531 103.339895,973.572689 112.809854,975.072583 C122.279812,976.572478 128.324461,988.094128 126.310954,1000.80691 C124.297447,1013.51969 114.988259,1022.60953 105.518301,1021.10964 Z M68.6008613,1021.88128 C78.0708199,1020.38139 84.1154683,1008.85974 82.1019614,996.146954 C80.0884546,983.434172 70.7792665,974.344331 61.309308,975.844225 C51.8393494,977.344119 45.794701,988.865769 47.8082079,1001.57855 C49.8217147,1014.29133 59.1309028,1023.38117 68.6008613,1021.88128 Z M86.1624312,1089.93074 C106.044682,1089.93074 126.004819,1103.61964 131.805448,1087.50435 C141.325368,1067.88387 113.516256,1057.46969 109.791913,1045.70408 C105.656347,1032.77406 97.9765485,1025.51934 88.6430257,1025.51934 C79.3095029,1025.51934 69.1371583,1034.48635 63.3956657,1047.56221 C51.6497263,1063.04174 33.80442,1067.3341 40.688844,1087.50435 C46.3251039,1103.4641 66.2801802,1089.93074 86.1624312,1089.93074 Z" id="Combined-Shape-Copy-11" transform="translate(86.890948, 1035.132750) rotate(-144.000000) translate(-86.890948, -1035.132750) "></path>
                    <path d="M1008.00847,102.006013 C1014.97333,99.1920272 1017.38315,88.9006748 1013.39095,79.0196337 C1009.39875,69.1385926 1000.5163,63.4096121 993.551439,66.2235976 C986.586581,69.0375831 984.176765,79.3289355 988.168965,89.2099766 C992.161164,99.0910176 1001.04362,104.819998 1008.00847,102.006013 Z M1091.77342,102.006013 C1084.80856,99.1920272 1082.39875,88.9006748 1086.39095,79.0196337 C1090.38315,69.1385926 1099.2656,63.4096121 1106.23046,66.2235976 C1113.19532,69.0375831 1115.60513,79.3289355 1111.61293,89.2099766 C1107.62073,99.0910176 1098.73828,104.819998 1091.77342,102.006013 Z M1068.5183,72.1096393 C1059.04834,70.6097453 1053.00369,59.0880949 1055.0172,46.3753129 C1057.03071,33.6625309 1066.3399,24.5726893 1075.80985,26.0725834 C1085.27981,27.5724775 1091.32446,39.0941279 1089.31095,51.8069099 C1087.29745,64.5196918 1077.98826,73.6095334 1068.5183,72.1096393 Z M1031.60086,72.8812806 C1041.07082,71.3813865 1047.11547,59.8597361 1045.10196,47.1469541 C1043.08845,34.4341722 1033.77927,25.3443306 1024.30931,26.8442247 C1014.83935,28.3441188 1008.7947,39.8657692 1010.80821,52.5785511 C1012.82171,65.2913331 1022.1309,74.3811747 1031.60086,72.8812806 Z M1049.16243,140.930745 C1069.04468,140.930745 1089.00482,154.619645 1094.80545,138.504349 C1104.32537,118.883866 1076.51626,108.469694 1072.79191,96.7040794 C1068.65635,83.7740576 1060.97655,76.5193409 1051.64303,76.5193409 C1042.3095,76.5193409 1032.13716,85.486347 1026.39567,98.5622051 C1014.64973,114.04174 996.80442,118.334095 1003.68884,138.504349 C1009.3251,154.464096 1029.28018,140.930745 1049.16243,140.930745 Z" id="Combined-Shape-Copy-12" transform="translate(1049.890948, 86.132750) rotate(-144.000000) translate(-1049.890948, -86.132750) "></path>
                </g>
            </g>
        </g>
    </g>
</svg>