<svg width="90px" height="77px" viewBox="0 0 90 77" version="1.1" xmlns="http://www.w3.org/2000/svg" xmlns:xlink="http://www.w3.org/1999/xlink">
    <g id="Page-1" stroke="none" stroke-width="1" fill="none" fill-rule="evenodd">
        <g id="Desktop-HD" transform="translate(-671.000000, -320.000000)" fill="#424141">
            <g id="Landing" transform="translate(119.000000, -100.000000)">
                <g id="Upload-area" transform="translate(371.000000, 370.000000)">
                    <g id="Upload" transform="translate(181.000000, 50.000000)">
                        <path d="M32.4040179,39.48 L30.0736607,37.16 L45.0401786,22.3 L60.0066964,37.16 L57.65625,39.48 L46.6875,28.56 L46.6875,76.92 L43.3727679,76.92 L43.3727679,28.56 L32.4040179,39.48 Z" id="Shape"></path>
                        <path d="M73.7879464,24.12 C73.7879464,23.88 73.828125,23.64 73.828125,23.4 C73.828125,10.54 63.2209821,0.12 50.3638393,0.12 C41.1026786,0.12 33.1272321,5.54 29.390625,13.38 C27.7633929,12.56 25.9553571,12.1 24.0066964,12.1 C18.0602679,12.1 13.1383929,16.82 12.1741071,22.5 C5.10267857,24.92 0,31.84 0,39.76 C0,49.7 8.05580357,57.8 18,57.8 L36.3616071,57.8 L36.3616071,54.6 L18.1607143,54.6 C9.94419643,54.6 3.25446429,47.9 3.25446429,39.68 C3.25446429,33.32 7.3125,27.44 13.3392857,25.36 L15.0267857,24.78 L15.328125,23.02 C16.0513393,18.7 19.7678571,15.16 24.1473214,15.16 C25.5334821,15.16 26.8995536,15.48 28.1450893,16.12 L30.8571429,17.48 L32.1629464,14.74 C35.4977679,7.76 42.6294643,3.26 50.3236607,3.26 C61.4330357,3.26 70.59375,11.92 70.59375,23.04 C70.59375,25.7 70.5535714,27.1 70.5535714,27.1 L73.6071429,27.12 C80.9598214,27.22 86.7857143,33.8 86.7857143,41.18 C86.7857143,48.54 80.7991071,54.56 73.4263393,54.6 L72.7834821,54.6 L53.2366071,54.6 L53.2366071,57.8 L73.5267857,57.8 L73.5267857,57.8 C82.5669643,57.8 90,50.34 90,41.24 C90,32.14 82.8683036,24.14 73.7879464,24.12 L73.7879464,24.12 Z" id="Shape"></path>
                    </g>
                </g>
            </g>
        </g>
    </g>
</svg>
